<svg width="28" height="28" xmlns="http://www.w3.org/2000/svg">

 <g>
  <title>background</title>
  <rect fill="none" id="canvas_background" height="402" width="582" y="-1" x="-1"/>
 </g>
 <g>
  <title>Layer 1</title>
  <path id="svg_1" fill-rule="evenodd" fill="#000000" d="m22.6928,1.972121c-0.3826,-0.22392 -0.8719,-0.09103 -1.0928,0.2968l-2.4467,4.29677c-1.6669,-0.78024 -3.3924,-1.17918 -5.1391,-1.17918c-4.69316,0 -9.2332,2.88187 -12.89427,8.29953l-0.01452,0.0213l-0.0127,0.0184c-0.12195,0.1746 -0.12506,0.3799 -0.00061,0.5525c2.70154,4.0128 5.88495,6.6409 9.2563,7.7455l-1.94905,3.4204c-0.22095,0.3879 -0.08984,0.8838 0.29279,1.1077l0.34643,0.2027c0.38263,0.2239 0.87189,0.0911 1.09283,-0.2968l13.2006,-23.17522c0.221,-0.38783 0.0899,-0.88374 -0.2928,-1.10767l-0.3464,-0.20273zm-4.6008,6.45687c-1.3567,-0.59731 -2.7266,-0.88845 -4.0778,-0.88845c-3.41,0 -6.94004,1.85451 -10.07512,5.8053c-0.30096,0.3793 -0.30096,0.9322 0,1.3115c2.35004,2.9616 4.92194,4.7457 7.49892,5.4536l1.3475,-2.3658c-1.5393,-0.491 -2.81217,-1.8605 -2.81217,-3.7414c0,-2.3792 1.82357,-4.30812 4.07267,-4.30812c1.0382,0 1.9857,0.411 2.7051,1.08752l1.3409,-2.35415zm-2.453,4.30665c-0.3464,-0.537 -0.9159,-0.886 -1.593,-0.886c-1.1255,0 -2.046,0.9629 -2.046,2.1525c0,0.7862 0.8432,1.7049 1.9024,1.7822l1.7366,-3.0487z" clip-rule="evenodd"/>
  <path id="svg_2" fill="#000000" d="m14.6873,22.598041c4.4438,-0.2613 8.7183,-3.1074 12.1991,-8.2451c0.0729,-0.1076 0.1136,-0.2189 0.1136,-0.3513c0,-0.1262 -0.035,-0.2316 -0.1044,-0.3342c-1.3377,-1.9778 -2.7931,-3.61665 -4.3304,-4.89993l-1.0592,1.85963c0.8827,0.7601 1.7471,1.6648 2.5834,2.7187c0.301,0.3793 0.301,0.9322 0,1.3115c-2.5218,3.1781 -5.2991,5.0003 -8.064,5.5916l-1.3381,2.3491z"/>
 </g>
</svg>